<svg width="17" height="16" viewBox="0 0 17 16" fill="none" xmlns="http://www.w3.org/2000/svg">
<g id="Check_16">
<path id="shape" d="M14.7419 4.22032C14.8824 4.36094 14.9612 4.55157 14.9612 4.75032C14.9612 4.94907 14.8824 5.13969 14.7419 5.28032L7.4919 12.5303C7.35128 12.6708 7.16065 12.7497 6.9619 12.7497C6.76315 12.7497 6.57253 12.6708 6.4319 12.5303L3.1819 9.28032C3.0495 9.13805 2.97739 8.95 2.98075 8.75569C2.98411 8.56137 3.06266 8.37592 3.1999 8.23832C3.33751 8.10107 3.52296 8.02252 3.71727 8.01916C3.91159 8.0158 4.09964 8.08791 4.2419 8.22032L6.9619 10.9403L13.6819 4.22032C13.8225 4.07987 14.0132 4.00098 14.2119 4.00098C14.4107 4.00098 14.6013 4.07987 14.7419 4.22032Z" fill="#555D76"/>
</g>
</svg>
