<svg width="106" height="28" viewBox="0 0 106 28" fill="none" xmlns="http://www.w3.org/2000/svg">
<g clip-path="url(#clip0_1184_2100)">
<path d="M27.0255 26H1.47554C1.11002 26 0.88156 25.5888 1.06432 25.2575L7.45252 13.7519L13.8407 2.2463C14.0235 1.9179 14.4804 1.9179 14.6632 2.2463L18.7725 9.64827C16.3023 10.2594 14.4718 12.4897 14.4718 15.1483C14.4718 18.2782 17.0077 20.8141 20.1375 20.8141C21.671 20.8141 23.0646 20.2058 24.0841 19.212L27.4396 25.2575C27.6223 25.5859 27.3939 26 27.0283 26H27.0255Z" fill="url(#paint0_linear_1184_2100)" stroke="url(#paint1_linear_1184_2100)" stroke-width="1.01449" stroke-linecap="round" stroke-linejoin="round"/>
<path d="M25.826 17.0074C24.935 18.9692 22.9588 20.3314 20.6657 20.3314C17.5359 20.3314 15 17.7955 15 14.6657C15 11.5359 17.5359 9 20.6657 9C21.5453 9 22.3763 9.1999 23.1187 9.55686" stroke="url(#paint2_linear_1184_2100)" stroke-width="1.95228" stroke-linecap="round" stroke-linejoin="round"/>
</g>
<path d="M39.5 20.1C36.54 20.1 34.74 18.04 34.74 15.14C34.74 12.18 36.74 10.1 39.56 10.1C42.36 10.1 43.8 11.76 44.04 13.96H41.64C41.46 12.94 40.86 12.12 39.62 12.12C38.18 12.12 37.22 13.22 37.22 15.1C37.22 16.98 38.12 18.08 39.6 18.08C40.9 18.08 41.46 17.28 41.64 16.3H44.04C43.78 18.44 42.32 20.1 39.5 20.1ZM50.9036 10.1C51.1436 10.1 51.3836 10.14 51.5036 10.16L51.4836 12.56C51.3436 12.5 51.1836 12.46 50.8036 12.46C49.6036 12.46 48.5836 13.28 48.4236 14.76V20H45.9836V10.2H48.3236L48.3636 11.78C48.8436 10.8 49.6436 10.1 50.9036 10.1ZM62.2358 17.94L62.3958 19.92C62.0158 20.02 61.5758 20.1 61.0758 20.1C60.0158 20.1 59.2358 19.56 58.9558 18.5C58.6358 19.1 57.7758 20.1 55.6758 20.1C53.4958 20.1 52.3558 19.02 52.3558 17.44C52.3558 15.12 54.6558 14.36 57.3358 14.36H58.8558V13.86C58.8558 12.72 58.1758 12 56.8158 12C55.6558 12 54.9358 12.56 54.8358 13.52H52.5958C52.7558 11.32 54.4558 10.1 56.9558 10.1C59.7358 10.1 61.2358 11.56 61.2358 14V17.44C61.2358 17.82 61.4358 18.04 61.7358 18.04C61.8958 18.04 62.0158 18.02 62.2358 17.94ZM56.3158 18.28C57.9158 18.28 58.8558 17.26 58.8558 16.42V15.78H57.2158C55.6158 15.78 54.7358 16.26 54.7358 17.18C54.7358 17.88 55.2358 18.28 56.3158 18.28ZM75.0747 10.2H77.6547L74.8147 20H72.0147L70.4547 14.3C70.3947 14.04 70.2947 13.56 70.2747 13.36H70.2147C70.1947 13.56 70.1147 14.04 70.0547 14.3L68.4947 20H65.6947L62.8347 10.2H65.4147L66.9147 16.46C67.0147 16.94 67.1347 17.34 67.1747 17.64H67.2347C67.2747 17.34 67.3947 16.94 67.5147 16.46L69.1147 10.2H71.3747L72.9947 16.46C73.1147 16.94 73.2147 17.34 73.2747 17.64H73.3347C73.3747 17.34 73.4547 16.98 73.5947 16.46L75.0747 10.2ZM82.5858 17.94L82.7458 19.92C82.3658 20.02 81.9458 20.1 81.4058 20.1C79.9458 20.1 79.1658 19.2 79.1658 17.64V5.8H81.5858V17.44C81.5858 17.82 81.8058 18.04 82.1058 18.04C82.2658 18.04 82.3658 18.02 82.5858 17.94ZM93.3788 15.16V15.66H86.3588C86.5388 17.26 87.4788 18.16 88.8788 18.16C90.3388 18.16 90.8788 17.4 91.0388 16.8H93.3388C92.9988 18.52 91.6388 20.1 88.7788 20.1C85.7788 20.1 83.9588 18.02 83.9588 15.12C83.9588 12.16 85.9988 10.1 88.7988 10.1C91.6988 10.1 93.3788 12.1 93.3788 15.16ZM88.8188 11.98C87.5988 11.98 86.6588 12.72 86.3988 14.16H91.0588C90.8588 12.66 90.0388 11.98 88.8188 11.98ZM104.297 15.16V15.66H97.2767C97.4567 17.26 98.3967 18.16 99.7967 18.16C101.257 18.16 101.797 17.4 101.957 16.8H104.257C103.917 18.52 102.557 20.1 99.6967 20.1C96.6967 20.1 94.8767 18.02 94.8767 15.12C94.8767 12.16 96.9167 10.1 99.7167 10.1C102.617 10.1 104.297 12.1 104.297 15.16ZM99.7367 11.98C98.5167 11.98 97.5767 12.72 97.3167 14.16H101.977C101.777 12.66 100.957 11.98 99.7367 11.98Z" fill="#F3F4FA"/>
<defs>
<linearGradient id="paint0_linear_1184_2100" x1="27.5039" y1="2" x2="3.62157" y2="28.3739" gradientUnits="userSpaceOnUse">
<stop offset="0.000950807" stop-color="#FFB200"/>
<stop offset="0.0814769" stop-color="#FFB100"/>
<stop offset="0.156006" stop-color="#FFAF02"/>
<stop offset="0.225461" stop-color="#FEAB04"/>
<stop offset="0.290764" stop-color="#FDA606"/>
<stop offset="0.352838" stop-color="#FCA00A"/>
<stop offset="0.412606" stop-color="#FB980E"/>
<stop offset="0.47099" stop-color="#FA9013"/>
<stop offset="0.528912" stop-color="#F98618"/>
<stop offset="0.587296" stop-color="#F77B1E"/>
<stop offset="0.647064" stop-color="#F56F24"/>
<stop offset="0.709138" stop-color="#F3632B"/>
<stop offset="0.774441" stop-color="#F25532"/>
<stop offset="0.843896" stop-color="#EF473A"/>
<stop offset="0.918425" stop-color="#ED3842"/>
<stop offset="0.998951" stop-color="#EB284B"/>
</linearGradient>
<linearGradient id="paint1_linear_1184_2100" x1="27.5039" y1="2" x2="3.62157" y2="28.3739" gradientUnits="userSpaceOnUse">
<stop offset="0.000950807" stop-color="#FFB200"/>
<stop offset="0.0814769" stop-color="#FFB100"/>
<stop offset="0.156006" stop-color="#FFAF02"/>
<stop offset="0.225461" stop-color="#FEAB04"/>
<stop offset="0.290764" stop-color="#FDA606"/>
<stop offset="0.352838" stop-color="#FCA00A"/>
<stop offset="0.412606" stop-color="#FB980E"/>
<stop offset="0.47099" stop-color="#FA9013"/>
<stop offset="0.528912" stop-color="#F98618"/>
<stop offset="0.587296" stop-color="#F77B1E"/>
<stop offset="0.647064" stop-color="#F56F24"/>
<stop offset="0.709138" stop-color="#F3632B"/>
<stop offset="0.774441" stop-color="#F25532"/>
<stop offset="0.843896" stop-color="#EF473A"/>
<stop offset="0.918425" stop-color="#ED3842"/>
<stop offset="0.998951" stop-color="#EB284B"/>
</linearGradient>
<linearGradient id="paint2_linear_1184_2100" x1="25.826" y1="9" x2="14.5063" y2="19.8147" gradientUnits="userSpaceOnUse">
<stop offset="0.000950807" stop-color="#FFB200"/>
<stop offset="0.0814769" stop-color="#FFB100"/>
<stop offset="0.156006" stop-color="#FFAF02"/>
<stop offset="0.225461" stop-color="#FEAB04"/>
<stop offset="0.290764" stop-color="#FDA606"/>
<stop offset="0.352838" stop-color="#FCA00A"/>
<stop offset="0.412606" stop-color="#FB980E"/>
<stop offset="0.47099" stop-color="#FA9013"/>
<stop offset="0.528912" stop-color="#F98618"/>
<stop offset="0.587296" stop-color="#F77B1E"/>
<stop offset="0.647064" stop-color="#F56F24"/>
<stop offset="0.709138" stop-color="#F3632B"/>
<stop offset="0.774441" stop-color="#F25532"/>
<stop offset="0.843896" stop-color="#EF473A"/>
<stop offset="0.918425" stop-color="#ED3842"/>
<stop offset="0.998951" stop-color="#EB284B"/>
</linearGradient>
<clipPath id="clip0_1184_2100">
<rect width="28" height="28" fill="white"/>
</clipPath>
</defs>
</svg>
