<svg width="167" height="24" viewBox="0 0 167 24" fill="none" xmlns="http://www.w3.org/2000/svg">
<g clip-path="url(#clip0_1184_806)">
<path d="M23.0208 22.222H1.25688C0.94552 22.222 0.750917 21.8717 0.906599 21.5895L6.34819 11.7888L11.7898 1.98813C11.9455 1.70838 12.3347 1.70838 12.4903 1.98813L15.9908 8.29326C13.8866 8.81383 12.3274 10.7136 12.3274 12.9783C12.3274 15.6444 14.4875 17.8045 17.1535 17.8045C18.4598 17.8045 19.6469 17.2864 20.5153 16.4398L23.3735 21.5895C23.5292 21.8693 23.3346 22.222 23.0232 22.222H23.0208Z" fill="url(#paint0_linear_1184_806)" stroke="url(#paint1_linear_1184_806)" stroke-width="0.864159" stroke-linecap="round" stroke-linejoin="round"/>
<path d="M21.9988 14.562C21.2398 16.2332 19.5565 17.3935 17.6032 17.3935C14.9371 17.3935 12.777 15.2334 12.777 12.5674C12.777 9.9013 14.9371 7.74121 17.6032 7.74121C18.3524 7.74121 19.0603 7.91149 19.6927 8.21556" stroke="url(#paint2_linear_1184_806)" stroke-width="1.66299" stroke-linecap="round" stroke-linejoin="round"/>
</g>
<path d="M33.6469 17.0852C31.1255 17.0852 29.5922 15.3304 29.5922 12.8602C29.5922 10.3388 31.2958 8.56699 33.698 8.56699C36.0831 8.56699 37.3097 9.98101 37.5141 11.855H35.4698C35.3164 10.9862 34.8053 10.2877 33.7491 10.2877C32.5225 10.2877 31.7047 11.2247 31.7047 12.8261C31.7047 14.4275 32.4713 15.3645 33.732 15.3645C34.8394 15.3645 35.3164 14.6831 35.4698 13.8483H37.5141C37.2926 15.6712 36.049 17.0852 33.6469 17.0852ZM43.3607 8.56699C43.5651 8.56699 43.7695 8.60106 43.8717 8.6181L43.8547 10.6625C43.7355 10.6114 43.5992 10.5773 43.2755 10.5773C42.2533 10.5773 41.3844 11.2758 41.2481 12.5365V17H39.1697V8.65217H41.163L41.197 9.99805C41.6059 9.16327 42.2874 8.56699 43.3607 8.56699ZM53.0136 15.2453L53.1499 16.9319C52.8262 17.017 52.4514 17.0852 52.0255 17.0852C51.1226 17.0852 50.4582 16.6252 50.2197 15.7223C49.9471 16.2334 49.2145 17.0852 47.4257 17.0852C45.5687 17.0852 44.5977 16.1652 44.5977 14.8193C44.5977 12.8431 46.5568 12.1957 48.8397 12.1957H50.1345V11.7698C50.1345 10.7988 49.5552 10.1854 48.3968 10.1854C47.4087 10.1854 46.7953 10.6625 46.7102 11.4802H44.8021C44.9384 9.60621 46.3865 8.56699 48.516 8.56699C50.8841 8.56699 52.1618 9.81065 52.1618 11.8891V14.8193C52.1618 15.143 52.3322 15.3304 52.5877 15.3304C52.724 15.3304 52.8262 15.3134 53.0136 15.2453ZM47.9709 15.5349C49.3338 15.5349 50.1345 14.666 50.1345 13.9505V13.4053H48.7375C47.3746 13.4053 46.625 13.8142 46.625 14.5979C46.625 15.1941 47.0509 15.5349 47.9709 15.5349ZM63.9501 8.65217H66.1477L63.7286 17H61.3435L60.0146 12.1446C59.9635 11.9232 59.8784 11.5143 59.8613 11.3439H59.8102C59.7932 11.5143 59.725 11.9232 59.6739 12.1446L58.3451 17H55.96L53.5238 8.65217H55.7215L56.9992 13.9846C57.0844 14.3934 57.1866 14.7342 57.2207 14.9897H57.2718C57.3059 14.7342 57.4081 14.3934 57.5103 13.9846L58.8732 8.65217H60.7983L62.1783 13.9846C62.2805 14.3934 62.3657 14.7342 62.4168 14.9897H62.4679C62.502 14.7342 62.5701 14.4275 62.6894 13.9846L63.9501 8.65217ZM70.3481 15.2453L70.4844 16.9319C70.1607 17.017 69.803 17.0852 69.343 17.0852C68.0993 17.0852 67.4349 16.3185 67.4349 14.9897V4.90417H69.4963V14.8193C69.4963 15.143 69.6837 15.3304 69.9393 15.3304C70.0756 15.3304 70.1607 15.3134 70.3481 15.2453ZM79.5418 12.8772V13.3031H73.562C73.7154 14.666 74.5161 15.4327 75.7086 15.4327C76.9523 15.4327 77.4123 14.7853 77.5485 14.2742H79.5077C79.2181 15.7393 78.0596 17.0852 75.6234 17.0852C73.068 17.0852 71.5177 15.3134 71.5177 12.8431C71.5177 10.3217 73.2554 8.56699 75.6405 8.56699C78.1107 8.56699 79.5418 10.2706 79.5418 12.8772ZM75.6575 10.1684C74.6183 10.1684 73.8176 10.7988 73.5961 12.0254H77.5656C77.3952 10.7476 76.6967 10.1684 75.6575 10.1684ZM88.8419 12.8772V13.3031H82.8622C83.0155 14.666 83.8162 15.4327 85.0087 15.4327C86.2524 15.4327 86.7124 14.7853 86.8487 14.2742H88.8079C88.5182 15.7393 87.3598 17.0852 84.9236 17.0852C82.3681 17.0852 80.8178 15.3134 80.8178 12.8431C80.8178 10.3217 82.5555 8.56699 84.9406 8.56699C87.4109 8.56699 88.8419 10.2706 88.8419 12.8772ZM84.9576 10.1684C83.9184 10.1684 83.1177 10.7988 82.8962 12.0254H86.8657C86.6953 10.7476 85.9969 10.1684 84.9576 10.1684ZM103.155 14.1106C103.168 15.4872 103.918 16.0051 104.749 16.0051C105.69 16.0051 106.344 15.3781 106.344 14.1106V7.65043H107.543V14.0289C107.543 15.8279 106.589 17.0545 104.763 17.0545C102.923 17.0545 101.955 15.9506 101.955 14.1106H103.155ZM115.663 15.9097L115.759 16.9591C115.527 17.0273 115.282 17.0681 114.996 17.0681C114.301 17.0681 113.837 16.632 113.755 15.9778C113.51 16.3594 112.897 17.0681 111.411 17.0681C109.898 17.0681 109.149 16.3185 109.149 15.2555C109.149 13.8108 110.484 13.2111 112.338 13.2111H113.742V12.775C113.742 11.8482 113.169 11.2758 112.093 11.2758C111.139 11.2758 110.553 11.7255 110.471 12.5297H109.299C109.408 11.085 110.539 10.2536 112.174 10.2536C113.933 10.2536 114.941 11.194 114.941 12.8022V15.5281C114.941 15.8143 115.105 15.9778 115.323 15.9778C115.445 15.9778 115.527 15.9642 115.663 15.9097ZM111.657 16.1005C113.006 16.1005 113.742 15.1601 113.742 14.5468V14.0834H112.27C111.016 14.0834 110.375 14.465 110.375 15.201C110.375 15.7598 110.757 16.1005 111.657 16.1005ZM121.256 10.3217H122.482L119.92 17H118.612L116.009 10.3217H117.358L119.075 15.0647C119.171 15.31 119.225 15.5008 119.293 15.7734H119.32C119.375 15.5008 119.429 15.31 119.511 15.0647L121.256 10.3217ZM129.612 15.9097L129.707 16.9591C129.476 17.0273 129.23 17.0681 128.944 17.0681C128.249 17.0681 127.786 16.632 127.704 15.9778C127.459 16.3594 126.845 17.0681 125.36 17.0681C123.847 17.0681 123.097 16.3185 123.097 15.2555C123.097 13.8108 124.433 13.2111 126.287 13.2111H127.69V12.775C127.69 11.8482 127.118 11.2758 126.041 11.2758C125.087 11.2758 124.501 11.7255 124.419 12.5297H123.247C123.356 11.085 124.487 10.2536 126.123 10.2536C127.881 10.2536 128.89 11.194 128.89 12.8022V15.5281C128.89 15.8143 129.053 15.9778 129.271 15.9778C129.394 15.9778 129.476 15.9642 129.612 15.9097ZM125.605 16.1005C126.954 16.1005 127.69 15.1601 127.69 14.5468V14.0834H126.218C124.964 14.0834 124.324 14.465 124.324 15.201C124.324 15.7598 124.706 16.1005 125.605 16.1005ZM132.023 10.0628C132.023 12.5842 137.529 10.7034 137.529 14.5604C137.529 16.0732 136.139 17.0818 134.081 17.0818C131.887 17.0818 130.565 16.0869 130.565 14.3151H131.75C131.75 15.3781 132.595 16.0187 134.176 16.0187C135.512 16.0187 136.33 15.4872 136.316 14.5604C136.316 11.9163 130.81 13.838 130.81 10.09C130.81 8.54996 132.146 7.56866 134.149 7.56866C136.153 7.56866 137.42 8.56359 137.406 10.2672H136.221C136.221 9.13601 135.389 8.63173 134.108 8.63173C132.664 8.63173 132.023 9.14964 132.023 10.0628ZM141.871 17.0681C139.841 17.0681 138.75 15.6507 138.75 13.6881C138.75 11.6846 140.045 10.2536 141.94 10.2536C143.684 10.2536 144.706 11.2349 144.884 12.7613H143.602C143.466 11.93 142.962 11.2758 141.953 11.2758C140.754 11.2758 139.977 12.2162 139.977 13.6609C139.977 15.0919 140.686 16.046 141.926 16.046C142.962 16.046 143.466 15.3918 143.602 14.6013H144.884C144.679 16.0869 143.643 17.0681 141.871 17.0681ZM149.303 10.2536C149.48 10.2536 149.603 10.2809 149.685 10.2945L149.671 11.4802C149.617 11.453 149.494 11.4257 149.221 11.4257C148.376 11.4257 147.586 12.1344 147.586 13.4837V17H146.386V10.3217H147.518L147.545 11.3984C147.872 10.7442 148.431 10.2536 149.303 10.2536ZM152.41 8.14108C152.41 8.6181 152.042 8.95883 151.579 8.95883C151.116 8.95883 150.748 8.6181 150.748 8.14108C150.748 7.67769 151.116 7.32334 151.579 7.32334C152.042 7.32334 152.41 7.67769 152.41 8.14108ZM150.938 17V10.3217H152.151V17H150.938ZM157.621 10.2536C159.434 10.2536 160.661 11.5484 160.661 13.5791C160.661 15.6371 159.407 17.0681 157.54 17.0681C156.449 17.0681 155.741 16.6184 155.345 15.9778V19.7258H154.146V10.3217H155.318L155.345 11.4393C155.768 10.7579 156.531 10.2536 157.621 10.2536ZM157.458 16.046C158.657 16.046 159.434 15.051 159.434 13.6064C159.434 12.1889 158.684 11.2758 157.485 11.2758C156.027 11.2758 155.345 12.516 155.345 13.4973V13.7972C155.345 14.8057 156 16.046 157.458 16.046ZM165.921 15.8552L165.975 16.9046C165.757 17 165.348 17.0681 164.926 17.0681C163.372 17.0681 162.445 16.1959 162.445 14.8057V11.3576H161.437V10.3217H162.513V8.33189H163.645V10.3217H165.812V11.3303H163.645V14.8057C163.645 15.4735 163.958 16.0187 165.048 16.0187C165.348 16.0187 165.634 15.9778 165.921 15.8552Z" fill="#242836"/>
<path d="M93.4642 17.2726L97.4167 7.37785H98.616L94.6908 17.2726H93.4642Z" fill="#555D76"/>
<defs>
<linearGradient id="paint0_linear_1184_806" x1="23.4283" y1="1.77832" x2="3.08491" y2="24.2441" gradientUnits="userSpaceOnUse">
<stop offset="0.000950807" stop-color="#FFB200"/>
<stop offset="0.0814769" stop-color="#FFB100"/>
<stop offset="0.156006" stop-color="#FFAF02"/>
<stop offset="0.225461" stop-color="#FEAB04"/>
<stop offset="0.290764" stop-color="#FDA606"/>
<stop offset="0.352838" stop-color="#FCA00A"/>
<stop offset="0.412606" stop-color="#FB980E"/>
<stop offset="0.47099" stop-color="#FA9013"/>
<stop offset="0.528912" stop-color="#F98618"/>
<stop offset="0.587296" stop-color="#F77B1E"/>
<stop offset="0.647064" stop-color="#F56F24"/>
<stop offset="0.709138" stop-color="#F3632B"/>
<stop offset="0.774441" stop-color="#F25532"/>
<stop offset="0.843896" stop-color="#EF473A"/>
<stop offset="0.918425" stop-color="#ED3842"/>
<stop offset="0.998951" stop-color="#EB284B"/>
</linearGradient>
<linearGradient id="paint1_linear_1184_806" x1="23.4283" y1="1.77832" x2="3.08491" y2="24.2441" gradientUnits="userSpaceOnUse">
<stop offset="0.000950807" stop-color="#FFB200"/>
<stop offset="0.0814769" stop-color="#FFB100"/>
<stop offset="0.156006" stop-color="#FFAF02"/>
<stop offset="0.225461" stop-color="#FEAB04"/>
<stop offset="0.290764" stop-color="#FDA606"/>
<stop offset="0.352838" stop-color="#FCA00A"/>
<stop offset="0.412606" stop-color="#FB980E"/>
<stop offset="0.47099" stop-color="#FA9013"/>
<stop offset="0.528912" stop-color="#F98618"/>
<stop offset="0.587296" stop-color="#F77B1E"/>
<stop offset="0.647064" stop-color="#F56F24"/>
<stop offset="0.709138" stop-color="#F3632B"/>
<stop offset="0.774441" stop-color="#F25532"/>
<stop offset="0.843896" stop-color="#EF473A"/>
<stop offset="0.918425" stop-color="#ED3842"/>
<stop offset="0.998951" stop-color="#EB284B"/>
</linearGradient>
<linearGradient id="paint2_linear_1184_806" x1="21.9988" y1="7.74121" x2="12.3565" y2="16.9534" gradientUnits="userSpaceOnUse">
<stop offset="0.000950807" stop-color="#FFB200"/>
<stop offset="0.0814769" stop-color="#FFB100"/>
<stop offset="0.156006" stop-color="#FFAF02"/>
<stop offset="0.225461" stop-color="#FEAB04"/>
<stop offset="0.290764" stop-color="#FDA606"/>
<stop offset="0.352838" stop-color="#FCA00A"/>
<stop offset="0.412606" stop-color="#FB980E"/>
<stop offset="0.47099" stop-color="#FA9013"/>
<stop offset="0.528912" stop-color="#F98618"/>
<stop offset="0.587296" stop-color="#F77B1E"/>
<stop offset="0.647064" stop-color="#F56F24"/>
<stop offset="0.709138" stop-color="#F3632B"/>
<stop offset="0.774441" stop-color="#F25532"/>
<stop offset="0.843896" stop-color="#EF473A"/>
<stop offset="0.918425" stop-color="#ED3842"/>
<stop offset="0.998951" stop-color="#EB284B"/>
</linearGradient>
<clipPath id="clip0_1184_806">
<rect width="23.8509" height="23.8509" fill="white" transform="translate(0 0.0742188)"/>
</clipPath>
</defs>
</svg>
