<svg width="80" height="80" viewBox="0 0 1000 1000" xmlns="http://www.w3.org/2000/svg">
    <path fill="#B3B8D2" d="M500 0C224 0 0 224 0 500s224 500 500 500 500-224 500-500S776 0 500 0M386 203h2l7 9c-128 36-186 92-186 92s15-8 41-20c76-34 136-43 161-45 4-1 8-1 12-1 43-6 92-7 143-2 67 8 139 28 213 68 0 0-56-53-176-90l9-11s97-2 199 74c0 0 102 185 102 412 0 0-60 103-216 108 0 0-26-30-47-57 93-26 128-84 128-84-29 19-57 32-81 41-36 15-70 25-103 31-68 12-130 9-183-1-40-8-75-19-104-30-16-7-34-15-52-24-2-2-4-3-6-4-1-1-2-1-3-2-13-7-20-12-20-12s34 56 124 83c-21 27-47 59-47 59-157-5-216-108-216-108 0-227 102-412 102-412 95-71 186-74 197-74m-18 264c-41 0-72 35-72 78s32 79 72 79 72-36 72-79c1-43-32-78-72-78m258 0c-40 0-72 35-72 78s32 79 72 79 72-36 72-79-32-78-72-78"/>
</svg>
