<svg width="14" height="12" viewBox="0 0 14 12" fill="none" xmlns="http://www.w3.org/2000/svg">
<path d="M3.65259 0.0490158C4.24263 -0.0515187 4.84771 -0.0183548 5.42323 0.146063C5.99875 0.310481 6.53004 0.60196 6.97792 0.999016L7.00259 1.02102L7.02526 1.00102C7.45272 0.62588 7.95527 0.346213 8.49937 0.180671C9.04348 0.0151289 9.61663 -0.0324815 10.1806 0.0410159L10.3446 0.0650159C11.0555 0.187755 11.7199 0.500453 12.2676 0.969996C12.8152 1.43954 13.2257 2.04845 13.4556 2.73224C13.6854 3.41603 13.726 4.14925 13.5732 4.85426C13.4203 5.55927 13.0797 6.20982 12.5873 6.73702L12.4673 6.86035L12.4353 6.88768L7.46859 11.807C7.35397 11.9205 7.20212 11.9885 7.04118 11.9986C6.88023 12.0086 6.72109 11.96 6.59326 11.8617L6.53059 11.807L1.53525 6.85902C1.00607 6.34412 0.629722 5.6928 0.447894 4.97719C0.266067 4.26159 0.285856 3.50961 0.505068 2.80456C0.72428 2.0995 1.13436 1.46888 1.6899 0.98253C2.24543 0.496179 2.92474 0.17308 3.65259 0.0490158Z" fill="#B2B8CC"/>
</svg>
