<svg width="65" height="15" viewBox="0 0 65 15" fill="none" xmlns="http://www.w3.org/2000/svg">
<path d="M12.4177 11.9222L11.6865 11.8892H5.10792L13.8721 2.97436L13.8369 2.23077C13.8238 1.65354 13.5925 1.10365 13.191 0.695376C12.7895 0.287106 12.2487 0.0518682 11.681 0.0385611L10.9498 0.00276H0L0.0379167 0.746347C0.13 1.95261 0.993958 2.86695 2.18833 2.93856L2.91958 2.97436H9.50083L0.725833 11.8892L0.76375 12.63C0.804375 13.8225 1.74417 14.7781 2.91687 14.8222L3.64812 14.858H14.606L14.5681 14.1144C14.4706 12.8944 13.6202 12.0021 12.415 11.925L12.4177 11.9222ZM21.1873 0.00276H21.1765C19.2403 0.00385583 17.3838 0.787174 16.0153 2.18045C14.6468 3.57373 13.8783 5.46288 13.8789 7.43245C13.8794 9.40202 14.6489 11.2907 16.0182 12.6832C17.3875 14.0757 19.2444 14.858 21.1805 14.858C23.1167 14.858 24.9736 14.0757 26.3429 12.6832C27.7121 11.2907 28.4816 9.40202 28.4822 7.43245C28.4827 5.46288 27.7142 3.57373 26.3457 2.18045C24.9772 0.787174 23.1208 0.00385583 21.1846 0.00276H21.1873ZM24.2775 10.581C23.8754 11.0163 23.3915 11.3651 22.8543 11.6066C22.3171 11.8481 21.7377 11.9774 21.1505 11.9869C20.5633 11.9963 19.9801 11.8857 19.4357 11.6616C18.8913 11.4374 18.3968 11.1044 17.9814 10.6822C17.566 10.26 17.2383 9.75719 17.0176 9.2037C16.797 8.65022 16.6879 8.0573 16.697 7.46015C16.706 6.86299 16.8329 6.27376 17.0701 5.72743C17.3074 5.1811 17.6502 4.68881 18.0781 4.27977C18.9082 3.48634 20.0095 3.05259 21.1486 3.07039C22.2877 3.08819 23.3753 3.55613 24.1811 4.37512C24.9868 5.19412 25.4475 6.29986 25.4655 7.4582C25.4835 8.61654 25.0574 9.73653 24.2775 10.581ZM59.15 0.00551252C58.3225 0.00666562 57.5047 0.186481 56.7507 0.533061C55.9967 0.879642 55.3236 1.38509 54.776 2.01596C54.2283 1.382 53.5538 0.874229 52.7977 0.526577C52.0415 0.178924 51.2211 -0.000599627 50.3913 4.85234e-06C49.2249 -0.00151388 48.085 0.35351 47.1196 1.019C46.5508 0.377307 45.2779 4.85234e-06 44.5494 4.85234e-06V14.858L45.2806 14.8222C46.4994 14.7396 47.3877 13.8611 47.4365 12.63L47.4717 11.8864V6.68404L47.5096 5.94045C47.5367 5.38414 47.6179 4.88841 47.8671 4.45328C48.2551 3.77134 48.8934 3.2742 49.6416 3.07123C50.3897 2.86826 51.1864 2.97607 51.8565 3.37094C52.2977 3.63012 52.6647 4.00231 52.9208 4.45052C53.1727 4.89117 53.2458 5.38689 53.2783 5.9377L53.3162 6.68404V11.8864L53.3515 12.6272C53.3741 13.2008 53.6081 13.7447 54.007 14.1509C54.406 14.557 54.9406 14.7957 55.5046 14.8195L56.2358 14.8553V6.68404L56.2683 5.94045C56.2954 5.38965 56.3767 4.88291 56.6312 4.44501C57.4437 3.02944 59.2312 2.54473 60.6206 3.37094C61.0622 3.63088 61.4292 4.00405 61.685 4.45328C61.9342 4.89392 62.01 5.39791 62.0371 5.94045L62.0777 6.68404V11.8864L62.1129 12.6272C62.1887 13.8473 63.0608 14.7479 64.2687 14.8195L65 14.8553V5.94045C64.9993 5.15998 64.8474 4.38729 64.553 3.66651C64.2587 2.94572 63.8275 2.29095 63.2843 1.73959C62.7411 1.18822 62.0964 0.751055 61.387 0.453049C60.6777 0.155044 59.9175 0.00203633 59.15 0.00276V0.00551252ZM31.3544 2.17569C30.6462 2.8582 30.0796 3.67809 29.688 4.58699C29.2965 5.49588 29.0878 6.47536 29.0744 7.46762C29.061 8.45988 29.2432 9.44481 29.6101 10.3643C29.977 11.2838 30.5212 12.1192 31.2107 12.8212C31.9002 13.5233 32.7209 14.0777 33.6245 14.4518C34.528 14.8259 35.4961 15.0121 36.4715 14.9994C37.4469 14.9867 38.41 14.7754 39.3039 14.3779C40.1977 13.9804 41.0042 13.4048 41.6758 12.6851C42.9864 11.2805 43.7062 9.41099 43.6819 7.4746C43.6575 5.53822 42.891 3.68801 41.5455 2.31802C40.2 0.94803 38.3819 0.166524 36.4784 0.13994C34.5748 0.113355 32.7363 0.843793 31.3544 2.17569ZM39.6148 10.581C39.209 11.0017 38.7253 11.3364 38.1915 11.5658C37.6578 11.7952 37.0846 11.9147 36.5052 11.9175C35.9257 11.9203 35.3515 11.8062 34.8156 11.582C34.2798 11.3577 33.7929 11.0277 33.3833 10.6109C32.9736 10.1942 32.6493 9.69898 32.429 9.15399C32.2086 8.609 32.0967 8.02501 32.0997 7.43577C32.1027 6.84654 32.2205 6.26375 32.4464 5.7211C32.6722 5.17845 33.0016 4.68669 33.4154 4.27426C34.2406 3.45191 35.3517 2.99399 36.5071 3.00005C37.6625 3.00611 38.7688 3.47565 39.5857 4.30662C40.4025 5.13759 40.8638 6.26282 40.8692 7.43772C40.8747 8.61262 40.4239 9.74222 39.6148 10.581Z" fill="#2D8CFF"/>
</svg>
