<svg width="41" height="40" viewBox="0 0 41 40" fill="none" xmlns="http://www.w3.org/2000/svg">
<circle cx="10.1266" cy="29.8737" r="9.79158" stroke="#555D76" stroke-width="0.67" stroke-dasharray="2 2"/>
<circle cx="30.3798" cy="10.1266" r="9.79158" stroke="#555D76" stroke-width="0.67" stroke-dasharray="2 2"/>
<circle cx="20.2531" cy="19.7465" r="14.6899" fill="white" stroke="#555D76"/>
<path d="M17.7709 22.9173C17.8676 23.0081 17.9963 23.0567 18.1289 23.0525C18.2614 23.0483 18.3869 22.9916 18.4776 22.8949C18.5684 22.7982 18.617 22.6694 18.6127 22.5368C18.6085 22.4043 18.5518 22.2789 18.4551 22.1881C18.3584 22.0974 18.2297 22.0488 18.0971 22.053C17.9646 22.0572 17.8391 22.1139 17.7484 22.2106C17.6576 22.3073 17.609 22.4361 17.6133 22.5686C17.6175 22.7012 17.6742 22.8266 17.7709 22.9173Z" fill="#555D76" stroke="#555D76" stroke-width="0.67" stroke-linecap="round" stroke-linejoin="round"/>
<path d="M20.1673 20.3656C20.264 20.4563 20.3928 20.5049 20.5254 20.5007C20.6579 20.4965 20.7834 20.4398 20.8741 20.3431C20.9648 20.2464 21.0134 20.1176 21.0092 19.9851C21.005 19.8525 20.9483 19.7271 20.8516 19.6364C20.7549 19.5456 20.6261 19.497 20.4936 19.5012C20.3611 19.5054 20.2356 19.5621 20.1449 19.6588C20.0541 19.7555 20.0055 19.8843 20.0097 20.0169C20.014 20.1494 20.0706 20.2748 20.1673 20.3656Z" fill="#555D76" stroke="#555D76" stroke-width="0.67" stroke-linecap="round" stroke-linejoin="round"/>
<path d="M22.5609 17.8109C22.6576 17.9016 22.7864 17.9502 22.9189 17.946C23.0515 17.9418 23.1769 17.8851 23.2676 17.7884C23.3584 17.6917 23.407 17.5629 23.4028 17.4304C23.3986 17.2978 23.3419 17.1724 23.2452 17.0817C23.1485 16.9909 23.0197 16.9423 22.8871 16.9465C22.7546 16.9507 22.6292 17.0074 22.5384 17.1041C22.4477 17.2008 22.3991 17.3296 22.4033 17.4622C22.4075 17.5947 22.4642 17.7201 22.5609 17.8109Z" fill="#555D76" stroke="#555D76" stroke-width="0.67" stroke-linecap="round" stroke-linejoin="round"/>
</svg>
