<svg width="53" height="52" viewBox="0 0 53 52" fill="none" xmlns="http://www.w3.org/2000/svg">
<rect x="3.24" y="18.8037" width="22.0072" height="45.0155" transform="rotate(-45 3.24 18.8037)" stroke="#555D76" stroke-width="0.67" stroke-dasharray="2.27 2.27"/>
<rect x="13.4988" y="13.4971" width="27.3465" height="27.3465" fill="white" stroke="#555D76"/>
<path d="M23.0243 26.4987C23.1507 25.5341 23.6244 24.6486 24.3566 24.008C25.0889 23.3674 26.0294 23.0157 27.0023 23.0186C27.9752 23.0215 28.9137 23.3789 29.6421 24.0238C30.3704 24.6687 30.8388 25.557 30.9595 26.5224C31.0801 27.4878 30.8449 28.464 30.2976 29.2684C29.7504 30.0728 28.9288 30.6502 27.9866 30.8925C27.0443 31.1348 26.0461 31.0254 25.1787 30.5848C24.3114 30.1442 23.6343 29.4025 23.2743 28.4987M23.0243 30.9987V28.4987H25.5243" stroke="#555D76" stroke-width="0.67" stroke-linecap="round" stroke-linejoin="round"/>
</svg>
