<svg width="53" height="52" viewBox="0 0 53 52" fill="none" xmlns="http://www.w3.org/2000/svg">
<rect x="3.24012" y="18.8037" width="22.0072" height="45.0155" transform="rotate(-45 3.24012 18.8037)" stroke="#B2B8CC" stroke-width="0.67" stroke-dasharray="2.27 2.27"/>
<rect x="13.4988" y="13.4971" width="27.3465" height="27.3465" fill="#1A1B21" stroke="#B2B8CC"/>
<path d="M23.0244 26.4987C23.1509 25.5341 23.6245 24.6486 24.3568 24.008C25.089 23.3674 26.0296 23.0157 27.0024 23.0186C27.9753 23.0215 28.9138 23.3789 29.6422 24.0238C30.3706 24.6687 30.8389 25.557 30.9596 26.5224C31.0803 27.4878 30.845 28.464 30.2978 29.2684C29.7505 30.0728 28.9289 30.6502 27.9867 30.8925C27.0445 31.1348 26.0462 31.0254 25.1789 30.5848C24.3115 30.1442 23.6344 29.4025 23.2744 28.4987M23.0244 30.9987V28.4987H25.5244" stroke="#B2B8CC" stroke-width="0.67" stroke-linecap="round" stroke-linejoin="round"/>
</svg>
