<svg width="50" height="50" viewBox="0 0 50 50" fill="none" xmlns="http://www.w3.org/2000/svg">
<circle cx="25" cy="25" r="24.665" stroke="#B2B8CC" stroke-width="0.67" stroke-dasharray="2 2"/>
<rect x="12.5" y="12.5" width="25.35" height="25.35" fill="#1A1B21" stroke="#B2B8CC"/>
<path d="M25 20.5C25.96 20.5 26.85 20.8005 27.58 21.313L25 25V20.5Z" fill="#B2B8CC"/>
<path d="M20.5 25C20.5 25.5909 20.6164 26.1761 20.8425 26.7221C21.0687 27.268 21.4002 27.7641 21.818 28.182C22.2359 28.5998 22.732 28.9313 23.2779 29.1575C23.8239 29.3836 24.4091 29.5 25 29.5C25.5909 29.5 26.1761 29.3836 26.7221 29.1575C27.268 28.9313 27.7641 28.5998 28.182 28.182C28.5998 27.7641 28.9313 27.268 29.1575 26.7221C29.3836 26.1761 29.5 25.5909 29.5 25C29.5 23.8065 29.0259 22.6619 28.182 21.818C27.3381 20.9741 26.1935 20.5 25 20.5C23.8065 20.5 22.6619 20.9741 21.818 21.818C20.9741 22.6619 20.5 23.8065 20.5 25Z" stroke="#B2B8CC" stroke-width="0.67" stroke-linecap="round" stroke-linejoin="round"/>
</svg>
