<svg xmlns="http://www.w3.org/2000/svg" viewBox="0 0 24 24" height="32" width="32">
    <g>
        <path
            d="M24,2a2,2,0,0,0-2-2H6A2,2,0,0,0,4,2v8.5a1,1,0,0,0,2,0v-8A.5.5,0,0,1,6.5,2h15a.5.5,0,0,1,.5.5v15a.5.5,0,0,1-.5.5h-8a1,1,0,0,0,0,2H22a2,2,0,0,0,2-2Z"
            fill="#000000"/>
        <path
            d="M2.25,22.5h-.5a.25.25,0,0,1-.25-.25v-.5A.76.76,0,0,0,.75,21a.76.76,0,0,0-.75.75v1.5A.76.76,0,0,0,.75,24h1.5a.75.75,0,0,0,0-1.5Z"
            fill="#000000"/>
        <path
            d="M10.75,21a.76.76,0,0,0-.75.75v.5a.25.25,0,0,1-.25.25h-.5a.75.75,0,0,0,0,1.5h1.5a.76.76,0,0,0,.75-.75v-1.5A.76.76,0,0,0,10.75,21Z"
            fill="#000000"/>
        <path
            d="M2.25,12.5H.75a.76.76,0,0,0-.75.75v1.5a.76.76,0,0,0,.75.75.76.76,0,0,0,.75-.75v-.5A.25.25,0,0,1,1.75,14h.5a.75.75,0,0,0,0-1.5Z"
            fill="#000000"/>
        <path d="M11.5,13.25a.76.76,0,0,0-.75-.75H9.25a.75.75,0,0,0,0,1.5h.5a.25.25,0,0,1,.25.25v.5a.75.75,0,0,0,1.5,0Z" fill="#000000"/>
        <path d="M.75,19.5a.76.76,0,0,0,.75-.75v-1A.76.76,0,0,0,.75,17a.76.76,0,0,0-.75.75v1A.76.76,0,0,0,.75,19.5Z" fill="#000000"/>
        <path d="M10.75,17a.76.76,0,0,0-.75.75v1a.75.75,0,0,0,1.5,0v-1A.76.76,0,0,0,10.75,17Z" fill="#000000"/>
        <path d="M6.25,22.5h-1a.75.75,0,0,0,0,1.5h1a.75.75,0,0,0,0-1.5Z" fill="#000000"/>
        <path d="M6.25,12.5h-1a.75.75,0,0,0,0,1.5h1a.75.75,0,0,0,0-1.5Z" fill="#000000"/>
        <path
            d="M13.29,10.71a1,1,0,0,0,1.42,0L17,8.41a.26.26,0,0,1,.35,0l1.87,1.87a.75.75,0,0,0,1.28-.53V4.25a.76.76,0,0,0-.75-.75h-5.5a.75.75,0,0,0-.53,1.28l1.87,1.87a.26.26,0,0,1,0,.35l-2.3,2.29A1,1,0,0,0,13.29,10.71Z"
            fill="#000000"/>
    </g>
</svg>
