<svg xmlns="http://www.w3.org/2000/svg" viewBox="0 0 24 24" height="32" width="32">
    <g>
        <path
            d="M16.55,12a1.5,1.5,0,0,0-1.5,1.5V20a.26.26,0,0,1-.14.23.24.24,0,0,1-.27,0l-.88-.73A1.25,1.25,0,1,0,11.84,21l2.33,2.8a.49.49,0,0,0,.38.18h8a.5.5,0,0,0,.5-.5V21.33A3.33,3.33,0,0,0,19.72,18H18.55a.5.5,0,0,1-.5-.5v-4A1.5,1.5,0,0,0,16.55,12Z"
            fill="#000000"/>
        <path d="M9.85,9a2,2,0,1,0-2,2A2,2,0,0,0,9.85,9Z" fill="#000000"/>
        <path d="M4.65,14.1a.24.24,0,0,0,0,.2.23.23,0,0,0,.18.09h5.86a.25.25,0,0,0,.2-.1.27.27,0,0,0,0-.23,3.32,3.32,0,0,0-6.31,0Z"
              fill="#000000"/>
        <path
            d="M9.5,19.5a1,1,0,0,0-1-1H3a1,1,0,0,1-1-1V5.25A.25.25,0,0,1,2.25,5h19.5a.25.25,0,0,1,.25.25V16a1,1,0,0,0,1,1h0a1,1,0,0,0,1-1V3a3,3,0,0,0-3-3H3A3,3,0,0,0,0,3V17.5a3,3,0,0,0,3,3H8.5a1,1,0,0,0,1-1ZM9.65,2a1,1,0,0,1,1.7,0,.91.91,0,0,1,0,1,1,1,0,0,1-1.7,0,.91.91,0,0,1,0-1ZM6.15,2a1,1,0,0,1,1.7,0,.91.91,0,0,1,0,1,1,1,0,0,1-1.7,0,.91.91,0,0,1,0-1Zm-3.56.09A1,1,0,0,1,4.35,2a.91.91,0,0,1,0,1,1,1,0,0,1-1.7,0,1,1,0,0,1-.15-.5A1.12,1.12,0,0,1,2.59,2.09Z"
            fill="#000000"/>
    </g>
</svg>
