<svg xmlns="http://www.w3.org/2000/svg" viewBox="0 0 24 24" height="32" width="32">
    <g>
        <path
            d="M10.67,5.11a5,5,0,0,1,1.5-.23A4.79,4.79,0,0,1,17,9.67v4.72a.88.88,0,0,0,1.75,0V9.67a6.55,6.55,0,0,0-6.54-6.54,6.46,6.46,0,0,0-2.05.32.87.87,0,0,0-.55,1.1A.86.86,0,0,0,10.67,5.11Z"
            fill="#000000"/>
        <path
            d="M17,18.75A.88.88,0,0,0,17,17.51a.87.87,0,0,0-1.23.07,4.79,4.79,0,0,1-8.36-3.19V9.67A4.78,4.78,0,0,1,8.6,6.47a.87.87,0,0,0-.07-1.23.88.88,0,0,0-1.24.06A6.58,6.58,0,0,0,5.62,9.67v4.72A6.54,6.54,0,0,0,17,18.75Z"
            fill="#000000"/>
        <path
            d="M10.21,14.39a.88.88,0,1,0-1.75,0,3.71,3.71,0,0,0,7.42,0V9.67a3.71,3.71,0,0,0-7.42,0v1.41a.88.88,0,1,0,1.75,0V9.67a2,2,0,1,1,3.91,0v4.72a2,2,0,1,1-3.91,0Z"
            fill="#000000"/>
        <path d="M13,13.92V11.08a.88.88,0,0,0-1.75,0v2.84a.88.88,0,0,0,1.75,0Z" fill="#000000"/>
        <path d="M6.5,22H2.25A.25.25,0,0,1,2,21.75V17.5a1,1,0,0,0-2,0V22a2,2,0,0,0,2,2H6.5a1,1,0,0,0,0-2Z" fill="#000000"/>
        <path d="M1,7.5a1,1,0,0,0,1-1V2.25A.25.25,0,0,1,2.25,2H6.5a1,1,0,0,0,0-2H2A2,2,0,0,0,0,2V6.5A1,1,0,0,0,1,7.5Z" fill="#000000"/>
        <path d="M23,16.5a1,1,0,0,0-1,1v4.25a.25.25,0,0,1-.25.25H17.5a1,1,0,0,0,0,2H22a2,2,0,0,0,2-2V17.5A1,1,0,0,0,23,16.5Z"
              fill="#000000"/>
        <path d="M22,0H17.5a1,1,0,0,0,0,2h4.25a.25.25,0,0,1,.25.25V6.5a1,1,0,0,0,2,0V2A2,2,0,0,0,22,0Z" fill="#000000"/>
    </g>
</svg>
