<svg xmlns="http://www.w3.org/2000/svg" viewBox="0 0 24 24" height="32" width="32"><g><path d="M24,6a1.5,1.5,0,0,0-1.5-1.5H1.5A1.5,1.5,0,0,0,0,6V8.5A1.5,1.5,0,0,0,1.5,10h21A1.5,1.5,0,0,0,24,8.5ZM3.25,7.25A1.25,1.25,0,1,1,4.5,8.5,1.25,1.25,0,0,1,3.25,7.25ZM8.5,8.5A1.25,1.25,0,1,1,9.75,7.25,1.25,1.25,0,0,1,8.5,8.5Z" fill="#000000"></path><path d="M22.74,2.05,18.84.11A1,1,0,0,0,18.39,0H5.63a1,1,0,0,0-.45.11L1.29,2.05a.5.5,0,0,0,.22,1h21A.5.5,0,0,0,23,2.62.52.52,0,0,0,22.74,2.05Z" fill="#000000"></path><path d="M24,13a1.5,1.5,0,0,0-1.5-1.5H1.5A1.5,1.5,0,0,0,0,13v2.5A1.5,1.5,0,0,0,1.5,17h9.25a.25.25,0,0,1,.25.25v4.5a.25.25,0,0,1-.25.25H5.5a1,1,0,0,0,0,2h13a1,1,0,0,0,0-2H13.25a.25.25,0,0,1-.25-.25v-4.5a.25.25,0,0,1,.25-.25H22.5A1.5,1.5,0,0,0,24,15.5ZM3.25,14.25A1.25,1.25,0,1,1,4.5,15.5,1.25,1.25,0,0,1,3.25,14.25ZM8.5,15.5a1.25,1.25,0,1,1,1.25-1.25A1.25,1.25,0,0,1,8.5,15.5Z" fill="#000000"></path><path d="M23,24a1,1,0,0,0,0-2H22a1,1,0,0,0,0,2Z" fill="#000000"></path><path d="M1,24H2a1,1,0,0,0,0-2H1a1,1,0,0,0,0,2Z" fill="#000000"></path></g></svg>