<?xml version="1.0" encoding="UTF-8" standalone="no"?>
<svg
   viewBox="0 0 24 24"
   height="32"
   width="32"
   version="1.1"
   id="svg8"
   sodipodi:docname="storage.svg"
   inkscape:version="1.1.2 (0a00cf5339, 2022-02-04)"
   xmlns:inkscape="http://www.inkscape.org/namespaces/inkscape"
   xmlns:sodipodi="http://sodipodi.sourceforge.net/DTD/sodipodi-0.dtd"
   xmlns="http://www.w3.org/2000/svg"
   xmlns:svg="http://www.w3.org/2000/svg">
  <defs
     id="defs12" />
  <sodipodi:namedview
     id="namedview10"
     pagecolor="#ffffff"
     bordercolor="#666666"
     borderopacity="1.0"
     inkscape:pageshadow="2"
     inkscape:pageopacity="0.0"
     inkscape:pagecheckerboard="0"
     showgrid="false"
     inkscape:zoom="4.9442232"
     inkscape:cx="-11.730862"
     inkscape:cy="41.462529"
     inkscape:window-width="2560"
     inkscape:window-height="1372"
     inkscape:window-x="0"
     inkscape:window-y="0"
     inkscape:window-maximized="1"
     inkscape:current-layer="g6" />
  <g
     id="g6">
    <path
       id="rect1026"
       style="fill:#000501;fill-opacity:1;stroke:none;stroke-width:18.3968;stroke-linecap:round"
       d="M 1.9472656 3.71875 C 0.96051165 3.71875 0.16601563 4.513246 0.16601562 5.5 L 0.16601562 8.9902344 C 0.16601563 9.9769884 0.96051165 10.771484 1.9472656 10.771484 L 30.089844 10.771484 C 31.076598 10.771484 31.871094 9.9769884 31.871094 8.9902344 L 31.871094 5.5 C 31.871094 4.513246 31.076598 3.71875 30.089844 3.71875 L 1.9472656 3.71875 z M 3.7128906 5.9492188 A 1.227047 1.227047 0 0 1 4.9414062 7.1757812 A 1.227047 1.227047 0 0 1 3.7128906 8.4023438 A 1.227047 1.227047 0 0 1 2.4863281 7.1757812 A 1.227047 1.227047 0 0 1 3.7128906 5.9492188 z M 7.7128906 5.9492188 A 1.227047 1.227047 0 0 1 8.9414062 7.1757812 A 1.227047 1.227047 0 0 1 7.7128906 8.4023438 A 1.227047 1.227047 0 0 1 6.4863281 7.1757812 A 1.227047 1.227047 0 0 1 7.7128906 5.9492188 z M 11.712891 5.9492188 A 1.227047 1.227047 0 0 1 12.941406 7.1757812 A 1.227047 1.227047 0 0 1 11.712891 8.4023438 A 1.227047 1.227047 0 0 1 10.486328 7.1757812 A 1.227047 1.227047 0 0 1 11.712891 5.9492188 z M 1.9472656 12.544922 C 0.96051162 12.544922 0.16601563 13.339418 0.16601562 14.326172 L 0.16601562 17.818359 C 0.16601563 18.805113 0.96051162 19.599609 1.9472656 19.599609 L 18.019531 19.599609 A 7.2446772 7.2446772 0 0 1 24.722656 15.087891 A 7.2446772 7.2446772 0 0 1 31.242188 19.177734 C 31.627301 18.851487 31.871094 18.364878 31.871094 17.818359 L 31.871094 14.326172 C 31.871094 13.339418 31.076598 12.544922 30.089844 12.544922 L 1.9472656 12.544922 z M 1.9472656 21.373047 C 0.96051162 21.373047 0.16601563 22.16559 0.16601562 23.152344 L 0.16601562 26.644531 C 0.16601563 27.631285 0.96051162 28.425781 1.9472656 28.425781 L 20.830078 28.425781 A 7.2446772 7.2446772 0 0 1 17.478516 22.332031 A 7.2446772 7.2446772 0 0 1 17.572266 21.373047 L 1.9472656 21.373047 z M 31.871094 23.314453 A 7.2446772 7.2446772 0 0 1 28.617188 28.425781 L 30.089844 28.425781 C 31.076598 28.425781 31.871094 27.631285 31.871094 26.644531 L 31.871094 23.314453 z "
       transform="scale(0.75)" />
    <path
       id="rect2440"
       style="stroke-width:8.34953;stroke-linecap:round"
       d="m 21.413439,13.80309 v 3.665679 c 0,2.151801 -2.828697,3.409518 -2.828697,3.409518 0,0 -2.771252,-1.324541 -2.771252,-3.409518 V 13.80309 c 1.980851,0.250658 3.555359,0.214831 5.599949,0 z"
       sodipodi:nodetypes="czczcc" />
  </g>
</svg>
