<svg width="220" height="40" fill="none" xmlns="http://www.w3.org/2000/svg">
    <g clip-path="url(#a)">
        <path d="M4.904 3.725A5.681 5.681 0 0 0 .056 10.13l3.361 23.997L17.555 1.96 4.904 3.725Z" fill="#97D700"/>
        <path d="M39.019 23.719 37.697 5.27A5.69 5.69 0 0 0 31.25.056L25.794.81 37.78 27.683a5.673 5.673 0 0 0 1.239-3.964Z" fill="#71C5E8"/>
        <path d="M8.572 39.965a5.645 5.645 0 0 0 2.844-.414l20.582-8.685-9.796-21.942-13.63 31.04Z" fill="#FF9013"/>
        <path d="M56.063 7.813h6.503l9.08 24.371h-5.823l-1.702-4.99h-9.796l-1.709 4.99h-5.64l9.087-24.371Zm-.296 15.054h6.9l-3.335-9.99h-.142l-3.423 9.99ZM97.748 7.813h5.504v24.371h-5.504V7.813Zm9.654 0h17.851v4.499h-12.335v6.837h9.937v4.386h-9.937v8.643h-5.516V7.814Zm29.137 15.125-9.164-15.125h6.234l5.714 10.026h.142l5.998-10.026h5.882l-9.267 15.09v9.281h-5.539v-9.246ZM85.93 7.813H73.775v24.371h5.5v-7.723h6.655a8.324 8.324 0 1 0 0-16.648Zm-.61 12.361h-6.044V12.1h6.045a4.038 4.038 0 0 1 0 8.075Zm70.716 5.141h1.842c.402 3.018 2.069 5.595 7.07 5.595 3.751 0 6.208-2.175 6.208-5.125 0-3.35-1.608-4.523-6.432-5.259-5.238-.771-7.763-2.512-7.763-6.299 0-3.719 3.048-6.267 7.538-6.267s7.171 2.211 7.706 6.03h-1.708c-.571-2.98-2.445-4.487-5.998-4.487-3.683 0-5.797 1.709-5.797 4.591 0 2.613 1.307 4.02 6.299 4.756 5.363.804 7.94 2.312 7.94 6.799 0 3.786-3.18 6.798-8.005 6.798-5.906.006-8.397-3.21-8.9-7.132ZM177.881 8.23h6.231c7.907 0 11.927 5.092 11.927 11.758v.296c0 6.633-3.819 11.895-11.995 11.895h-6.163V8.229Zm6.098 22.414c6.798 0 10.118-4.289 10.118-10.387v-.269c0-5.894-3.119-10.219-10.154-10.219h-4.188v20.875h4.224ZM200.863 8.23h1.877v11.794L214.366 8.2h2.143l-11.59 11.688 12.16 12.296H214.8l-12.06-12.083v12.095h-1.877V8.23Z" fill="#242736"/>
    </g>
    <defs>
        <clipPath id="a">
            <path fill="#fff" d="M0 0h219.048v40H0z"/>
        </clipPath>
    </defs>
</svg>
