<svg width="60" height="60" fill="none" xmlns="http://www.w3.org/2000/svg">
    <g clip-path="url(#a)" stroke-width="3.75" stroke-linecap="round" stroke-linejoin="round">
        <path d="M26.25 58.133H5.625a3.75 3.75 0 0 1-3.75-3.75V5.633a3.75 3.75 0 0 1 3.75-3.75h26.572a3.75 3.75 0 0 1 2.653 1.1L49.528 17.66a3.75 3.75 0 0 1 1.097 2.652v11.57" stroke="#585E76"/>
        <path d="M50.625 20.633h-15a3.75 3.75 0 0 1-3.75-3.75v-15" stroke="#008A27"/>
        <path d="M43.125 39.383v15a3.75 3.75 0 0 1-3.75 3.75h-3.75m22.5-18.75h-3.75a3.75 3.75 0 0 0-3.75 3.75c0 5.624 7.5 5.624 7.5 11.25a3.75 3.75 0 0 1-3.75 3.75h-3.75" stroke="#1672EB"/>
    </g>
    <defs>
        <clipPath id="a">
            <path fill="#fff" d="M0 0h60v60H0z"/>
        </clipPath>
    </defs>
</svg>
